<svg id="Capa_1" enable-background="new 0 0 512 512" height="512" viewBox="0 0 512 512" width="512" xmlns="http://www.w3.org/2000/svg"><g><path d="m497 120.5h-282c-8.284 0-15 6.716-15 15s6.716 15 15 15h282c8.284 0 15-6.716 15-15s-6.716-15-15-15z"/><path d="m497 241h-282c-8.284 0-15 6.716-15 15s6.716 15 15 15h282c8.284 0 15-6.716 15-15s-6.716-15-15-15z"/><path d="m497 361.5h-282c-8.284 0-15 6.716-15 15s6.716 15 15 15h282c8.284 0 15-6.716 15-15s-6.716-15-15-15z"/><path d="m497 482h-282c-8.284 0-15 6.716-15 15s6.716 15 15 15h282c8.284 0 15-6.716 15-15s-6.716-15-15-15z"/><path d="m215 30h282c8.284 0 15-6.716 15-15s-6.716-15-15-15h-282c-8.284 0-15 6.716-15 15s6.716 15 15 15z"/><path d="m124.394 85.607c2.928 2.929 6.767 4.393 10.606 4.393s7.678-1.464 10.606-4.394c5.858-5.858 5.858-15.355 0-21.213l-60-60c-5.857-5.858-15.355-5.858-21.213 0l-60 60c-5.858 5.858-5.858 15.355 0 21.213 5.857 5.858 15.355 5.858 21.213 0l34.394-34.392v409.573l-34.394-34.393c-5.857-5.858-15.355-5.858-21.213 0s-5.858 15.355 0 21.213l60 60c2.929 2.929 6.768 4.393 10.607 4.393s7.678-1.464 10.606-4.394l60-60c5.858-5.858 5.858-15.355 0-21.213-5.857-5.858-15.355-5.858-21.213 0l-34.393 34.394v-409.573z"/></g></svg>