<svg id="Layer_3" enable-background="new 0 0 32 32" height="512" viewBox="0 0 32 32" width="512" xmlns="http://www.w3.org/2000/svg"><g><path d="m28.25 0h-24.5c-2.071 0-3.75 1.6789-3.75 3.75v24.5c0 2.071 1.679 3.75 3.75 3.75h24.5c2.0711 0 3.75-1.679 3.75-3.75v-24.5c0-2.0711-1.6789-3.75-3.75-3.75zm1.75 28.25c0 .965-.785 1.75-1.75 1.75h-24.5c-.965 0-1.75-.785-1.75-1.75v-24.5c0-.965.785-1.75 1.75-1.75h24.5c.965 0 1.75.785 1.75 1.75z"/><path d="m10.8369 17.4863v-8.7412c0-1.4072-1.1455-2.5527-2.5537-2.5527h-2.8301c-.5527 0-1 .4473-1 1s.4473 1 1 1h2.8301c.3057 0 .5537.248.5537.5527v2.7412h-.8838c-1.9297 0-3.5 1.5703-3.5 3.5s1.5703 3.5 3.5 3.5h1.8838c.5527 0 1-.4472 1-1zm-2-1h-.8838c-.8271 0-1.5-.6729-1.5-1.5s.6729-1.5 1.5-1.5h.8838z"/><path d="m13.123 18.4863h3.0303c1.8359 0 3.3301-1.5703 3.3301-3.5 0-.9248-.3369-1.7949-.9492-2.4512-.6221-.667-1.4893-1.0488-2.3809-1.0488h-2.0303v-4.29c0-.5527-.4473-1-1-1s-1 .4473-1 1v10.29c0 .5528.4473 1 1 1zm1-5h2.0303c.3389 0 .6738.1504.918.4121.2617.2813.4121.6777.4121 1.0879 0 .8271-.5967 1.5-1.3301 1.5h-2.0303z"/><path d="m24.9131 11.165h1.6338c.5527 0 1-.4473 1-1s-.4473-1-1-1h-1.6338c-2.5703 0-4.6611 2.0908-4.6611 4.6611 0 2.5693 2.0908 4.6602 4.6611 4.6602h1.6338c.5527 0 1-.4473 1-1s-.4473-1-1-1h-1.6338c-1.4678 0-2.6611-1.1934-2.6611-2.6602 0-1.4677 1.1933-2.6611 2.6611-2.6611z"/><path d="m20.2178 18.7227-5.8623 5.8633-2.5732-2.5732c-.3906-.3906-1.0234-.3906-1.4141 0s-.3906 1.0234 0 1.4141l3.2803 3.2803c.1874.1873.4413.2928.707.2928s.5195-.1055.707-.293l6.5693-6.5703c.3906-.3906.3906-1.0234 0-1.4141s-1.0234-.3906-1.414.0001z"/></g></svg>